<svg width="20" height="23" viewBox="0 0 20 23" fill="none" xmlns="http://www.w3.org/2000/svg">
<path d="M19.0787 17.924C18.7308 18.7275 18.3191 19.4672 17.8421 20.1472C17.1919 21.0743 16.6595 21.716 16.2492 22.0724C15.6131 22.6573 14.9317 22.9568 14.2019 22.9739C13.6781 22.9739 13.0463 22.8248 12.3109 22.5224C11.5731 22.2214 10.895 22.0724 10.275 22.0724C9.6248 22.0724 8.92744 22.2214 8.18153 22.5224C7.43447 22.8248 6.83266 22.9824 6.37253 22.998C5.67276 23.0278 4.97525 22.7197 4.27903 22.0724C3.83466 21.6848 3.27884 21.0204 2.613 20.0791C1.8986 19.0739 1.31127 17.9084 0.851139 16.5795C0.358358 15.1442 0.111328 13.7543 0.111328 12.4087C0.111328 10.8673 0.444392 9.53789 1.11151 8.42385C1.63581 7.529 2.33332 6.82312 3.2063 6.30493C4.07928 5.78674 5.02253 5.52267 6.03833 5.50578C6.59415 5.50578 7.32303 5.6777 8.2288 6.01559C9.13202 6.35462 9.71197 6.52655 9.96624 6.52655C10.1563 6.52655 10.8006 6.32552 11.8928 5.92473C12.9256 5.55305 13.7973 5.39916 14.5114 5.45978C16.4465 5.61595 17.9003 6.37876 18.8671 7.75303C17.1365 8.80163 16.2804 10.2703 16.2974 12.1544C16.3131 13.622 16.8454 14.8432 17.8918 15.8129C18.366 16.2629 18.8955 16.6107 19.4847 16.8578C19.3569 17.2283 19.222 17.5832 19.0787 17.924ZM14.6406 0.460131C14.6406 1.61039 14.2204 2.68439 13.3828 3.67847C12.3719 4.86023 11.1493 5.54311 9.82342 5.43536C9.80653 5.29736 9.79673 5.15213 9.79673 4.99951C9.79673 3.89526 10.2774 2.71349 11.1311 1.74724C11.5573 1.25801 12.0994 0.851218 12.7567 0.526714C13.4126 0.207053 14.033 0.0302728 14.6165 0C14.6335 0.153772 14.6406 0.307554 14.6406 0.460116V0.460131Z" fill="black"/>
</svg>
