<svg width="15" height="18" viewBox="0 0 15 18" fill="none" xmlns="http://www.w3.org/2000/svg">
<path d="M13.5553 1.82326C11.8943 0.264018 9.28384 0.34649 7.7246 2.00747L1.76438 8.35655C-0.314607 10.5712 -0.204646 14.0519 2.00999 16.1308C4.22462 18.2098 7.7053 18.0999 9.78428 15.8852L11.6665 13.8803C12.013 13.5112 11.9946 12.931 11.6255 12.5846C11.2564 12.2381 10.6763 12.2564 10.3298 12.6255L8.44763 14.6305C7.06164 16.1069 4.74119 16.1802 3.26477 14.7942C1.78835 13.4082 1.71504 11.0878 3.10103 9.61134L9.06125 3.26225C9.92749 2.33948 11.3778 2.29367 12.3005 3.15991C13.2233 4.02616 13.2691 5.47644 12.4029 6.3992L7.80557 11.2965C7.45907 11.6656 6.87896 11.6839 6.50985 11.3374C6.14075 10.9909 6.12242 10.4108 6.46892 10.0417L9.64152 6.66207C9.98802 6.29296 9.96969 5.71285 9.60059 5.36635C9.23148 5.01985 8.65137 5.03818 8.30487 5.40729L5.13227 8.78689C4.09277 9.89421 4.14775 11.6345 5.25507 12.674C6.36239 13.7135 8.10272 13.6586 9.14222 12.5512L13.7395 7.65398C15.2988 5.99301 15.2163 3.3825 13.5553 1.82326Z" fill="#9F9F9F"/>
</svg>
