<svg width="18" height="18" viewBox="0 0 18 18" fill="none" xmlns="http://www.w3.org/2000/svg">
<path d="M6.60758 1.50024L3.89258 4.22274" stroke="white" stroke-width="1.2" stroke-miterlimit="10" stroke-linecap="round" stroke-linejoin="round"/>
<path d="M11.3936 1.50024L14.1086 4.22274" stroke="white" stroke-width="1.2" stroke-miterlimit="10" stroke-linecap="round" stroke-linejoin="round"/>
<path d="M1.50195 5.88745C1.50195 4.49995 2.24445 4.38745 3.16695 4.38745H14.837C15.7595 4.38745 16.502 4.49995 16.502 5.88745C16.502 7.49995 15.7595 7.38745 14.837 7.38745H3.16695C2.24445 7.38745 1.50195 7.49995 1.50195 5.88745Z" stroke="white" stroke-width="1.2"/>
<path d="M7.32227 10.5002V13.1627" stroke="white" stroke-width="1.2" stroke-linecap="round"/>
<path d="M10.7686 10.5002V13.1627" stroke="white" stroke-width="1.2" stroke-linecap="round"/>
<path d="M2.62695 7.49976L3.68445 13.9798C3.92445 15.4348 4.50195 16.4998 6.64695 16.4998H11.1695C13.502 16.4998 13.847 15.4798 14.117 14.0698L15.377 7.49976" stroke="white" stroke-width="1.2" stroke-linecap="round"/>
</svg>
