<svg width="25" height="25" viewBox="0 0 25 25" fill="none" xmlns="http://www.w3.org/2000/svg">
<path d="M12.5201 3.41016C9.21009 3.41016 6.52009 6.10016 6.52009 9.41016V12.3002C6.52009 12.9102 6.26009 13.8402 5.95009 14.3602L4.80009 16.2702C4.09009 17.4502 4.58009 18.7602 5.88009 19.2002C10.1901 20.6402 14.8401 20.6402 19.1501 19.2002C20.3601 18.8002 20.8901 17.3702 20.2301 16.2702L19.0801 14.3602C18.7801 13.8402 18.5201 12.9102 18.5201 12.3002V9.41016C18.5201 6.11016 15.8201 3.41016 12.5201 3.41016Z" stroke="#F6F6F6" stroke-width="1.5" stroke-miterlimit="10" stroke-linecap="round"/>
<path d="M14.3699 3.70043C14.0599 3.61043 13.7399 3.54043 13.4099 3.50043C12.4499 3.38043 11.5299 3.45043 10.6699 3.70043C10.9599 2.96043 11.6799 2.44043 12.5199 2.44043C13.3599 2.44043 14.0799 2.96043 14.3699 3.70043Z" stroke="#F6F6F6" stroke-width="1.5" stroke-miterlimit="10" stroke-linecap="round" stroke-linejoin="round"/>
<path d="M15.52 19.5596C15.52 21.2096 14.17 22.5596 12.52 22.5596C11.7 22.5596 10.94 22.2196 10.4 21.6796C9.86002 21.1396 9.52002 20.3796 9.52002 19.5596" stroke="#F6F6F6" stroke-width="1.5" stroke-miterlimit="10"/>
</svg>
