<svg width="17" height="17" viewBox="0 0 17 17" fill="none" xmlns="http://www.w3.org/2000/svg">
<path d="M15.1449 12.7199C15.1449 12.9599 15.0915 13.2066 14.9782 13.4466C14.8649 13.6866 14.7182 13.9133 14.5249 14.1266C14.1982 14.4866 13.8382 14.7466 13.4315 14.9133C13.0315 15.0799 12.5982 15.1666 12.1315 15.1666C11.4515 15.1666 10.7249 15.0066 9.95821 14.6799C9.19154 14.3533 8.42488 13.9133 7.66488 13.3599C6.89821 12.7999 6.17154 12.1799 5.47821 11.4933C4.79154 10.7999 4.17154 10.0733 3.61821 9.31325C3.07154 8.55325 2.63154 7.79325 2.31154 7.03992C1.99154 6.27992 1.83154 5.55325 1.83154 4.85992C1.83154 4.40659 1.91154 3.97325 2.07154 3.57325C2.23154 3.16659 2.48488 2.79325 2.83821 2.45992C3.26488 2.03992 3.73154 1.83325 4.22488 1.83325C4.41154 1.83325 4.59821 1.87325 4.76488 1.95325C4.93821 2.03325 5.09154 2.15325 5.21154 2.32659L6.75821 4.50659C6.87821 4.67325 6.96488 4.82659 7.02488 4.97325C7.08488 5.11325 7.11821 5.25325 7.11821 5.37992C7.11821 5.53992 7.07154 5.69992 6.97821 5.85325C6.89154 6.00658 6.76488 6.16658 6.60488 6.32658L6.09821 6.85325C6.02488 6.92658 5.99154 7.01325 5.99154 7.11992C5.99154 7.17325 5.99821 7.21992 6.01154 7.27325C6.03154 7.32658 6.05154 7.36658 6.06488 7.40658C6.18488 7.62658 6.39154 7.91325 6.68488 8.25992C6.98488 8.60659 7.30488 8.95992 7.65154 9.31325C8.01154 9.66658 8.35821 9.99325 8.71154 10.2933C9.05821 10.5866 9.34488 10.7866 9.57154 10.9066C9.60488 10.9199 9.64488 10.9399 9.69154 10.9599C9.74488 10.9799 9.79821 10.9866 9.85821 10.9866C9.97154 10.9866 10.0582 10.9466 10.1315 10.8733L10.6382 10.3733C10.8049 10.2066 10.9649 10.0799 11.1182 9.99992C11.2715 9.90658 11.4249 9.85992 11.5915 9.85992C11.7182 9.85992 11.8515 9.88658 11.9982 9.94658C12.1449 10.0066 12.2982 10.0933 12.4649 10.2066L14.6715 11.7733C14.8449 11.8933 14.9649 12.0333 15.0382 12.1999C15.1049 12.3666 15.1449 12.5333 15.1449 12.7199Z" stroke="#F6F6F6" stroke-width="1.5" stroke-miterlimit="10"/>
<path d="M12.8333 6.50008C12.8333 6.10008 12.52 5.48675 12.0533 4.98675C11.6267 4.52675 11.06 4.16675 10.5 4.16675" stroke="#F6F6F6" stroke-width="1.5" stroke-linecap="round" stroke-linejoin="round"/>
<path d="M15.1667 6.49992C15.1667 3.91992 13.08 1.83325 10.5 1.83325" stroke="#F6F6F6" stroke-width="1.5" stroke-linecap="round" stroke-linejoin="round"/>
</svg>
