<svg width="19" height="16" viewBox="0 0 19 16" fill="none" xmlns="http://www.w3.org/2000/svg">
<path fill-rule="evenodd" clip-rule="evenodd" d="M9.5 4.75C7.40132 4.75 5.7 6.45132 5.7 8.55C5.7 10.6487 7.40132 12.35 9.5 12.35C11.5987 12.35 13.3 10.6487 13.3 8.55C13.3 6.45132 11.5987 4.75 9.5 4.75ZM7.6 8.55C7.6 7.50066 8.45066 6.65 9.5 6.65C10.5493 6.65 11.4 7.50066 11.4 8.55C11.4 9.59934 10.5493 10.45 9.5 10.45C8.45066 10.45 7.6 9.59934 7.6 8.55Z" fill="#9F9F9F"/>
<path fill-rule="evenodd" clip-rule="evenodd" d="M7.54444 0C6.31772 0 5.22862 0.784976 4.84069 1.94875L4.75681 2.20042C4.6275 2.58834 4.26447 2.85 3.85556 2.85H2.85C1.27599 2.85 0 4.12599 0 5.7V12.35C0 13.924 1.27599 15.2 2.85 15.2H16.15C17.724 15.2 19 13.924 19 12.35V5.7C19 4.12599 17.724 2.85 16.15 2.85H15.1444C14.7355 2.85 14.3725 2.58834 14.2432 2.20042L14.1593 1.94875C13.7714 0.784976 12.6823 0 11.4556 0H7.54444ZM6.64319 2.54958C6.7725 2.16166 7.13553 1.9 7.54444 1.9H11.4556C11.8645 1.9 12.2275 2.16166 12.3568 2.54958L12.4407 2.80125C12.8286 3.96502 13.9177 4.75 15.1444 4.75H16.15C16.6747 4.75 17.1 5.17533 17.1 5.7V12.35C17.1 12.8747 16.6747 13.3 16.15 13.3H2.85C2.32533 13.3 1.9 12.8747 1.9 12.35V5.7C1.9 5.17533 2.32533 4.75 2.85 4.75H3.85556C5.08228 4.75 6.17138 3.96502 6.5593 2.80125L6.64319 2.54958Z" fill="#9F9F9F"/>
</svg>
