<svg width="15" height="16" viewBox="0 0 15 16" fill="none" xmlns="http://www.w3.org/2000/svg">
<path d="M5.31201 12.376H4.99951C2.49951 12.376 1.24951 11.751 1.24951 8.62598V5.50098C1.24951 3.00098 2.49951 1.75098 4.99951 1.75098H9.99951C12.4995 1.75098 13.7495 3.00098 13.7495 5.50098V8.62598C13.7495 11.126 12.4995 12.376 9.99951 12.376H9.68701C9.49326 12.376 9.30576 12.4697 9.18701 12.626L8.24951 13.876C7.83701 14.426 7.16201 14.426 6.74951 13.876L5.81201 12.626C5.71201 12.4885 5.48076 12.376 5.31201 12.376Z" stroke="#888888" stroke-width="1.5" stroke-miterlimit="10" stroke-linecap="round" stroke-linejoin="round"/>
<path d="M9.99608 7.375H10.0017" stroke="#888888" stroke-width="1.5" stroke-linecap="round" stroke-linejoin="round"/>
<path d="M7.4973 7.375H7.50291" stroke="#888888" stroke-width="1.5" stroke-linecap="round" stroke-linejoin="round"/>
<path d="M4.99657 7.375H5.00218" stroke="#888888" stroke-width="1.5" stroke-linecap="round" stroke-linejoin="round"/>
</svg>
