<svg width="12" height="12" viewBox="0 0 12 12" fill="none" xmlns="http://www.w3.org/2000/svg">
<path d="M2.06694 1.18306C1.82286 0.938981 1.42714 0.938981 1.18306 1.18306C0.938981 1.42714 0.938981 1.82286 1.18306 2.06694L5.11612 6L1.18306 9.93306C0.938981 10.1771 0.938981 10.5729 1.18306 10.8169C1.42714 11.061 1.82286 11.061 2.06694 10.8169L6 6.88388L9.93306 10.8169C10.1771 11.061 10.5729 11.061 10.8169 10.8169C11.061 10.5729 11.061 10.1771 10.8169 9.93306L6.88388 6L10.8169 2.06694C11.061 1.82286 11.061 1.42714 10.8169 1.18306C10.5729 0.938981 10.1771 0.938981 9.93306 1.18306L6 5.11612L2.06694 1.18306Z" fill="#0E0E0E" stroke="black" stroke-linecap="round" stroke-linejoin="round"/>
</svg>
