<svg width="12" height="10" viewBox="0 0 12 10" fill="none" xmlns="http://www.w3.org/2000/svg">
<path d="M6 9.22831C7.80378 9.22831 9.48493 8.16545 10.6551 6.3259C11.115 5.60541 11.115 4.39438 10.6551 3.67389C9.48493 1.83434 7.80378 0.771484 6 0.771484C4.19622 0.771484 2.51507 1.83434 1.34492 3.67389C0.885028 4.39438 0.885028 5.60541 1.34492 6.3259C2.51507 8.16545 4.19622 9.22831 6 9.22831Z" stroke="#888888" stroke-linecap="round" stroke-linejoin="round"/>
<path d="M7.82809 5.00218C7.82809 6.01393 7.01052 6.83151 5.99876 6.83151C4.98701 6.83151 4.16943 6.01393 4.16943 5.00218C4.16943 3.99043 4.98701 3.17285 5.99876 3.17285C7.01052 3.17285 7.82809 3.99043 7.82809 5.00218Z" stroke="#888888" stroke-linecap="round" stroke-linejoin="round"/>
</svg>
