<svg width="10" height="11" viewBox="0 0 10 11" fill="none" xmlns="http://www.w3.org/2000/svg">
<path fill-rule="evenodd" clip-rule="evenodd" d="M4.87422 10.1599C3.73179 9.45681 2.66901 8.62932 1.70489 7.69222C1.02707 7.01737 0.511056 6.19465 0.196367 5.28707C-0.369924 3.5265 0.291542 1.51099 2.14269 0.91451C3.11559 0.601307 4.17813 0.780316 4.99794 1.39554C5.81807 0.781066 6.88024 0.602119 7.85319 0.91451C9.70434 1.51099 10.3706 3.5265 9.80428 5.28707C9.48959 6.19465 8.97357 7.01737 8.29576 7.69222C7.33164 8.62932 6.26886 9.45681 5.12643 10.1599L5.0027 10.2369L4.87422 10.1599ZM6.96806 2.89635C7.52875 3.07546 7.92713 3.57883 7.97692 4.17108L6.96806 2.89635Z" fill="#FF0000"/>
</svg>
