<svg width="21" height="19" viewBox="0 0 21 19" fill="none" xmlns="http://www.w3.org/2000/svg">
<path d="M10.4483 18.7068C9.93104 18.7068 9.31034 18.4999 8.89655 18.0861C2.17241 12.1895 2.06897 12.0861 2.06897 11.9826L1.96552 11.8792C0.724136 10.6378 0 8.87918 0 7.12056V6.91366C0.103448 3.18952 3.10345 0.292969 6.82759 0.292969C7.96552 0.292969 9.51724 0.913658 10.4483 2.15504C11.3793 0.913658 13.0345 0.292969 14.1724 0.292969C17.8966 0.292969 20.7931 3.18952 21 6.91366V7.12056C21 8.98262 20.2759 10.6378 19.0345 11.9826L18.931 12.0861C18.8276 12.1895 18 12.9137 12.1034 18.1895C11.5862 18.4999 11.069 18.7068 10.4483 18.7068ZM3.62069 11.6723C4.03448 12.0861 6.10345 13.5343 9.93104 16.8447C10.2414 17.155 10.6552 17.155 10.9655 16.8447C14.8966 13.3275 17.1724 11.3619 17.6897 10.9481L17.7931 10.8447C18.8276 9.81021 19.3448 8.46538 19.3448 7.12056V6.91366C19.2414 4.01711 16.9655 1.84469 14.069 1.84469C13.3448 1.84469 11.8966 2.36193 11.3793 3.49987C11.1724 3.91366 10.7586 4.12056 10.3448 4.12056C9.93104 4.12056 9.51724 3.91366 9.31035 3.49987C8.79311 2.46538 7.44828 1.84469 6.62069 1.84469C3.82758 1.84469 1.44828 4.12056 1.34483 6.91366V7.224C1.34483 8.56883 1.96552 9.91366 2.89655 10.8447L3.62069 11.6723Z" fill="#F6F6F6"/>
</svg>
