<svg width="11" height="11" viewBox="0 0 11 11" fill="none" xmlns="http://www.w3.org/2000/svg">
<path d="M7.679 2.89635C8.23969 3.07546 8.63807 3.57883 8.68786 4.17108M5.58515 10.1599C4.44273 9.45682 3.37994 8.62932 2.41583 7.69222C1.73801 7.01737 1.22199 6.19465 0.907304 5.28707C0.341013 3.5265 1.00248 1.51099 2.85363 0.91451C3.82652 0.601307 4.88907 0.780316 5.70888 1.39554C6.52901 0.781066 7.59118 0.602119 8.56413 0.91451C10.4153 1.51099 11.0815 3.5265 10.5152 5.28707C10.2005 6.19465 9.68451 7.01737 9.00669 7.69222C8.04258 8.62932 6.97979 9.45682 5.83737 10.1599L5.71364 10.2369L5.58515 10.1599Z" stroke="black" stroke-width="0.5" stroke-linecap="round" stroke-linejoin="round"/>
</svg>
