<svg width="25" height="25" viewBox="0 0 25 25" fill="none" xmlns="http://www.w3.org/2000/svg">
<path d="M22.5562 7.17542H16.6543" stroke="black" stroke-miterlimit="10" stroke-linecap="round" stroke-linejoin="round"/>
<path d="M6.81742 7.17542H2.88281" stroke="black" stroke-miterlimit="10" stroke-linecap="round" stroke-linejoin="round"/>
<path d="M10.7523 10.6922C12.6537 10.6922 14.1951 9.11768 14.1951 7.17546C14.1951 5.23324 12.6537 3.65875 10.7523 3.65875C8.85096 3.65875 7.30957 5.23324 7.30957 7.17546C7.30957 9.11768 8.85096 10.6922 10.7523 10.6922Z" stroke="black" stroke-miterlimit="10" stroke-linecap="round" stroke-linejoin="round"/>
<path d="M22.5562 18.228H18.6216" stroke="black" stroke-miterlimit="10" stroke-linecap="round" stroke-linejoin="round"/>
<path d="M8.78472 18.228H2.88281" stroke="black" stroke-miterlimit="10" stroke-linecap="round" stroke-linejoin="round"/>
<path d="M14.6869 21.7447C16.5883 21.7447 18.1297 20.1702 18.1297 18.2279C18.1297 16.2857 16.5883 14.7112 14.6869 14.7112C12.7855 14.7112 11.2441 16.2857 11.2441 18.2279C11.2441 20.1702 12.7855 21.7447 14.6869 21.7447Z" stroke="black" stroke-miterlimit="10" stroke-linecap="round" stroke-linejoin="round"/>
</svg>
