<svg width="49" height="49" viewBox="0 0 49 49" fill="none" xmlns="http://www.w3.org/2000/svg">
<path d="M30.6252 46.4486H18.3752C7.28891 46.4486 2.55225 41.7119 2.55225 30.6256V18.3756C2.55225 7.2894 7.28891 2.55273 18.3752 2.55273H30.6252C41.7114 2.55273 46.4481 7.2894 46.4481 18.3756V30.6256C46.4481 41.7119 41.7114 46.4486 30.6252 46.4486ZM18.3752 5.61523C8.96308 5.61523 5.61475 8.96357 5.61475 18.3756V30.6256C5.61475 40.0377 8.96308 43.3861 18.3752 43.3861H30.6252C40.0372 43.3861 43.3856 40.0377 43.3856 30.6256V18.3756C43.3856 8.96357 40.0372 5.61523 30.6252 5.61523H18.3752Z" fill="#888888"/>
<path d="M18.3748 21.9479C15.2715 21.9479 12.7603 19.4367 12.7603 16.3333C12.7603 13.23 15.2715 10.7188 18.3748 10.7188C21.4782 10.7188 23.9894 13.23 23.9894 16.3333C23.9894 19.4367 21.4782 21.9479 18.3748 21.9479ZM18.3748 13.7813C16.9661 13.7813 15.8228 14.9246 15.8228 16.3333C15.8228 17.7421 16.9661 18.8854 18.3748 18.8854C19.7836 18.8854 20.9269 17.7421 20.9269 16.3333C20.9269 14.9246 19.7836 13.7813 18.3748 13.7813Z" fill="#888888"/>
<path d="M5.45087 40.223C4.96087 40.223 4.47087 39.978 4.18503 39.5493C3.71545 38.8551 3.8992 37.8955 4.61378 37.4259L14.6792 30.668C16.8842 29.1776 19.9263 29.3613 21.9271 31.0559L22.6009 31.648C23.6217 32.5259 25.3571 32.5259 26.3575 31.648L34.8509 24.3593C37.015 22.5013 40.4246 22.5013 42.6092 24.3593L45.9371 27.2176C46.57 27.7688 46.6517 28.7284 46.1005 29.3818C45.5492 30.0147 44.5896 30.0963 43.9363 29.5451L40.6084 26.6868C39.5875 25.8088 37.8521 25.8088 36.8313 26.6868L28.338 33.9755C26.1738 35.8334 22.7642 35.8334 20.5796 33.9755L19.9059 33.3834C18.9667 32.5872 17.415 32.5055 16.3738 33.2201L6.30837 39.978C6.04295 40.1413 5.7367 40.223 5.45087 40.223Z" fill="#888888"/>
</svg>
