<svg width="21" height="22" viewBox="0 0 21 22" fill="none" xmlns="http://www.w3.org/2000/svg">
<path d="M10.5 19.75C15.3325 19.75 19.25 15.8325 19.25 11C19.25 6.16751 15.3325 2.25 10.5 2.25C5.66751 2.25 1.75 6.16751 1.75 11C1.75 15.8325 5.66751 19.75 10.5 19.75Z" fill="#08BB6A" stroke="#F6F6F6" stroke-width="1.5" stroke-linecap="round" stroke-linejoin="round"/>
<path d="M7.00015 3.125H7.87515C6.1689 8.235 6.1689 13.765 7.87515 18.875H7.00015" fill="#08BB6A"/>
<path d="M7.00015 3.125H7.87515C6.1689 8.235 6.1689 13.765 7.87515 18.875H7.00015" stroke="#F6F6F6" stroke-width="1.5" stroke-linecap="round" stroke-linejoin="round"/>
<path d="M13.125 3.125C14.8312 8.235 14.8312 13.765 13.125 18.875V3.125Z" fill="#08BB6A"/>
<path d="M13.125 3.125C14.8312 8.235 14.8312 13.765 13.125 18.875" stroke="#F6F6F6" stroke-width="1.5" stroke-linecap="round" stroke-linejoin="round"/>
<path d="M2.625 14.5V13.625C7.735 15.3312 13.265 15.3312 18.375 13.625V14.5" fill="#08BB6A"/>
<path d="M2.625 14.5V13.625C7.735 15.3312 13.265 15.3312 18.375 13.625V14.5" stroke="#F6F6F6" stroke-width="1.5" stroke-linecap="round" stroke-linejoin="round"/>
<path d="M2.625 8.37539C7.735 6.66914 13.265 6.66914 18.375 8.37539H2.625Z" fill="#08BB6A"/>
<path d="M2.625 8.37539C7.735 6.66914 13.265 6.66914 18.375 8.37539" stroke="#F6F6F6" stroke-width="1.5" stroke-linecap="round" stroke-linejoin="round"/>
</svg>
