<svg width="12" height="16" viewBox="0 0 12 16" fill="none" xmlns="http://www.w3.org/2000/svg">
<path d="M6 0.381836C2.68286 0.381836 0 2.74054 0 5.6569C0 9.61319 6 15.4534 6 15.4534C6 15.4534 12 9.61319 12 5.6569C12 2.74054 9.31714 0.381836 6 0.381836ZM1.71429 5.6569C1.71429 3.57701 3.63429 1.889 6 1.889C8.36571 1.889 10.2857 3.57701 10.2857 5.6569C10.2857 7.82721 7.81714 11.0751 6 13.1023C4.21714 11.0902 1.71429 7.8046 1.71429 5.6569Z" fill="#F6F6F6"/>
<path d="M5.9993 7.54085C7.18277 7.54085 8.14216 6.69738 8.14216 5.6569C8.14216 4.61642 7.18277 3.77295 5.9993 3.77295C4.81584 3.77295 3.85645 4.61642 3.85645 5.6569C3.85645 6.69738 4.81584 7.54085 5.9993 7.54085Z" fill="#F6F6F6"/>
</svg>
