<svg width="16" height="20" viewBox="0 0 16 20" fill="none" xmlns="http://www.w3.org/2000/svg">
<path d="M9 12C9 11.4477 8.55228 11 8 11C7.44772 11 7 11.4477 7 12V14C7 14.5523 7.44772 15 8 15C8.55229 15 9 14.5523 9 14V12Z" fill="#BABABA"/>
<path fill-rule="evenodd" clip-rule="evenodd" d="M3 5.2V6C1.34315 6 0 7.34315 0 9V17C0 18.6569 1.34315 20 3 20H13C14.6569 20 16 18.6569 16 17V9C16 7.34315 14.6569 6 13 6V5.2C13 2.37466 10.8068 0 8 0C5.19316 0 3 2.37466 3 5.2ZM8 2C6.38856 2 5 3.38615 5 5.2V6H11V5.2C11 3.38615 9.61144 2 8 2ZM3 8H13C13.5523 8 14 8.44772 14 9V17C14 17.5523 13.5523 18 13 18H3C2.44772 18 2 17.5523 2 17V9C2 8.44772 2.44772 8 3 8Z" fill="#BABABA"/>
</svg>
