<svg width="18" height="19" viewBox="0 0 18 19" fill="none" xmlns="http://www.w3.org/2000/svg">
<path d="M6.37207 14.75H5.99707C2.99707 14.75 1.49707 14 1.49707 10.25V6.5C1.49707 3.5 2.99707 2 5.99707 2H11.9971C14.9971 2 16.4971 3.5 16.4971 6.5V10.25C16.4971 13.25 14.9971 14.75 11.9971 14.75H11.6221C11.3896 14.75 11.1646 14.8625 11.0221 15.05L9.89707 16.55C9.40207 17.21 8.59207 17.21 8.09707 16.55L6.97207 15.05C6.85207 14.885 6.57457 14.75 6.37207 14.75Z" stroke="white" stroke-width="1.5" stroke-miterlimit="10" stroke-linecap="round" stroke-linejoin="round"/>
<path d="M5.25293 6.5H12.7529" stroke="white" stroke-width="1.5" stroke-linecap="round" stroke-linejoin="round"/>
<path d="M5.25293 10.25H9.75293" stroke="white" stroke-width="1.5" stroke-linecap="round" stroke-linejoin="round"/>
</svg>
