<svg width="12" height="18" viewBox="0 0 12 18" fill="none" xmlns="http://www.w3.org/2000/svg">
<path fill-rule="evenodd" clip-rule="evenodd" d="M2.57143 3.42857C2.57143 1.53502 4.10645 0 6 0C7.89355 0 9.42857 1.53502 9.42857 3.42857V8.57143C9.42857 10.465 7.89355 12 6 12C4.10645 12 2.57143 10.465 2.57143 8.57143V3.42857ZM6 1.71429C5.05323 1.71429 4.28571 2.4818 4.28571 3.42857V8.57143C4.28571 9.5182 5.05323 10.2857 6 10.2857C6.94677 10.2857 7.71429 9.5182 7.71429 8.57143V3.42857C7.71429 2.4818 6.94677 1.71429 6 1.71429Z" fill="#888888"/>
<path d="M6.85714 14.5107C9.19264 14.1767 11.0929 12.4979 11.7514 10.2853C11.9133 9.74123 12 9.16569 12 8.57143C12 8.09804 11.6162 7.71429 11.1429 7.71429C10.6695 7.71429 10.2857 8.09804 10.2857 8.57143C10.2857 8.99835 10.2236 9.40924 10.1084 9.79632C9.58131 11.5672 7.94017 12.8571 6 12.8571C4.05983 12.8571 2.41869 11.5672 1.89165 9.79632C1.77645 9.40924 1.71429 8.99835 1.71429 8.57143C1.71429 8.09804 1.33053 7.71429 0.857143 7.71429C0.383756 7.71429 0 8.09804 0 8.57143C0 9.16569 0.0866546 9.74123 0.248584 10.2853C0.90709 12.4979 2.80736 14.1767 5.14286 14.5107V16.2857C5.14286 16.7591 5.52661 17.1429 6 17.1429C6.47339 17.1429 6.85714 16.7591 6.85714 16.2857V14.5107Z" fill="#888888"/>
</svg>
