<svg width="6" height="20" viewBox="0 0 6 20" fill="none" xmlns="http://www.w3.org/2000/svg">
<path d="M5.11545 2.9962C5.04766 1.89829 4.0939 1.05547 2.99599 1.12326C1.89808 1.19106 1.05526 2.14482 1.12306 3.24273C1.19085 4.34064 2.14461 5.18346 3.24252 5.11566C4.34043 5.04786 5.18325 4.09411 5.11545 2.9962Z" stroke="black" stroke-width="1.5"/>
<path d="M5.12326 16.9696C5.05547 15.8717 4.10171 15.0289 3.0038 15.0967C1.90589 15.1644 1.06307 16.1182 1.13087 17.2161C1.19866 18.314 2.15242 19.1568 3.25033 19.089C4.34824 19.0213 5.19106 18.0675 5.12326 16.9696Z" stroke="black" stroke-width="1.5"/>
<path d="M5.12326 9.98289C5.05547 8.88498 4.10171 8.04216 3.0038 8.10996C1.90589 8.17775 1.06307 9.13151 1.13087 10.2294C1.19866 11.3273 2.15242 12.1702 3.25033 12.1024C4.34824 12.0346 5.19106 11.0808 5.12326 9.98289Z" stroke="black" stroke-width="1.5"/>
</svg>
