<svg width="16" height="15" viewBox="0 0 16 15" fill="none" xmlns="http://www.w3.org/2000/svg">
<path d="M9.81152 1.24976H6.18653C5.76153 1.24976 5.16152 1.49976 4.86152 1.79976L2.29903 4.36226C1.99903 4.66226 1.74902 5.26226 1.74902 5.68726V9.31225C1.74902 9.73725 1.99903 10.3372 2.29903 10.6372L4.86152 13.1998C5.16152 13.4998 5.76153 13.7498 6.18653 13.7498H9.81152C10.2365 13.7498 10.8365 13.4998 11.1365 13.1998L13.699 10.6372C13.999 10.3372 14.249 9.73725 14.249 9.31225V5.68726C14.249 5.26226 13.999 4.66226 13.699 4.36226L11.1365 1.79976C10.8365 1.49976 10.2365 1.24976 9.81152 1.24976Z" stroke="#FF0000" stroke-linecap="round" stroke-linejoin="round"/>
<path d="M5.81348 9.68774L10.1885 5.31274" stroke="#FF0000" stroke-linecap="round" stroke-linejoin="round"/>
<path d="M10.1885 9.68774L5.81348 5.31274" stroke="#FF0000" stroke-linecap="round" stroke-linejoin="round"/>
</svg>
