<svg width="25" height="25" viewBox="0 0 25 25" fill="none" xmlns="http://www.w3.org/2000/svg">
<path d="M10.9899 2.72957L5.99991 4.59957C4.84991 5.02957 3.90991 6.38955 3.90991 7.61955V15.0495C3.90991 16.2295 4.68992 17.7795 5.63992 18.4895L9.93991 21.6996C11.3499 22.7596 13.6699 22.7596 15.0799 21.6996L19.3799 18.4895C20.3299 17.7795 21.1099 16.2295 21.1099 15.0495V7.61955C21.1099 6.38955 20.1699 5.02957 19.0199 4.59957L14.0299 2.72957C13.1799 2.41957 11.8199 2.41957 10.9899 2.72957Z" stroke="#F6F6F6" stroke-width="1.5" stroke-linecap="round" stroke-linejoin="round"/>
<path d="M12.4999 11.4204C12.4599 11.4204 12.4099 11.4204 12.3699 11.4204C11.4299 11.3904 10.6799 10.6104 10.6799 9.6604C10.6799 8.6904 11.4699 7.90039 12.4399 7.90039C13.4099 7.90039 14.2 8.6904 14.2 9.6604C14.19 10.6204 13.4399 11.3904 12.4999 11.4204Z" stroke="#F6F6F6" stroke-width="1.5" stroke-linecap="round" stroke-linejoin="round"/>
<path d="M10.51 14.2204C9.55004 14.8604 9.55004 15.9103 10.51 16.5503C11.6 17.2803 13.39 17.2803 14.48 16.5503C15.44 15.9103 15.44 14.8604 14.48 14.2204C13.4 13.4904 11.61 13.4904 10.51 14.2204Z" stroke="#F6F6F6" stroke-width="1.5" stroke-linecap="round" stroke-linejoin="round"/>
</svg>
