<svg width="23" height="22" viewBox="0 0 23 22" fill="none" xmlns="http://www.w3.org/2000/svg">
<path d="M11.5 13.75C13.0188 13.75 14.25 12.5188 14.25 11C14.25 9.48122 13.0188 8.25 11.5 8.25C9.98122 8.25 8.75 9.48122 8.75 11C8.75 12.5188 9.98122 13.75 11.5 13.75Z" stroke="#F6F6F6" stroke-width="1.5" stroke-miterlimit="10" stroke-linecap="round" stroke-linejoin="round"/>
<path d="M2.3335 11.8062V10.1928C2.3335 9.23949 3.11266 8.45116 4.07516 8.45116C5.73433 8.45116 6.41266 7.27783 5.5785 5.83866C5.10183 5.01366 5.386 3.94116 6.22016 3.46449L7.806 2.55699C8.53016 2.12616 9.46516 2.38283 9.896 3.10699L9.99683 3.28116C10.8218 4.72033 12.1785 4.72033 13.0127 3.28116L13.1135 3.10699C13.5443 2.38283 14.4793 2.12616 15.2035 2.55699L16.7893 3.46449C17.6235 3.94116 17.9077 5.01366 17.431 5.83866C16.5968 7.27783 17.2752 8.45116 18.9343 8.45116C19.8877 8.45116 20.676 9.23033 20.676 10.1928V11.8062C20.676 12.7595 19.8968 13.5478 18.9343 13.5478C17.2752 13.5478 16.5968 14.7212 17.431 16.1603C17.9077 16.9945 17.6235 18.0578 16.7893 18.5345L15.2035 19.442C14.4793 19.8728 13.5443 19.6162 13.1135 18.892L13.0127 18.7178C12.1877 17.2787 10.831 17.2787 9.99683 18.7178L9.896 18.892C9.46516 19.6162 8.53016 19.8728 7.806 19.442L6.22016 18.5345C5.386 18.0578 5.10183 16.9853 5.5785 16.1603C6.41266 14.7212 5.73433 13.5478 4.07516 13.5478C3.11266 13.5478 2.3335 12.7595 2.3335 11.8062Z" stroke="#F6F6F6" stroke-width="1.5" stroke-miterlimit="10" stroke-linecap="round" stroke-linejoin="round"/>
</svg>
