<svg width="10" height="14" viewBox="0 0 10 14" fill="none" xmlns="http://www.w3.org/2000/svg">
<path d="M0.829215 7.20915L0.829219 7.20914C0.734837 6.86213 0.801935 6.4991 1.00396 6.2058L1.41573 6.48943M0.829215 7.20915L3.50159 6.596C3.3341 5.99042 2.7462 5.62838 2.1469 5.64098H1.94462C1.90769 5.64098 1.87087 5.64507 1.83484 5.65318C1.50089 5.72834 1.19786 5.92111 1.00248 6.20796L1.41573 6.48943M0.829215 7.20915L0.82975 7.21108C0.997124 7.81685 1.58512 8.17901 2.18453 8.16641M0.829215 7.20915L2.18453 8.16641M1.41573 6.48943C1.534 6.31579 1.72396 6.19064 1.94462 6.14098L1.31169 7.07792C1.2571 6.87721 1.29456 6.66535 1.41573 6.48943ZM2.18453 8.16641H2.39548C2.43636 8.16641 2.47708 8.1614 2.51674 8.15148C2.80113 8.08038 3.06109 7.92342 3.24839 7.69469L3.2851 7.65644C3.30585 7.63482 3.32461 7.61138 3.34116 7.5864C3.5347 7.29433 3.59607 6.93693 3.50168 6.59631L2.18453 8.16641ZM8.5784 10.4931C8.59431 10.5041 8.611 10.5143 8.62843 10.5236C9.40655 10.9381 9.62107 11.7808 9.21269 12.4225C8.78091 13.101 7.77435 13.3831 6.94793 12.9839C6.14551 12.5962 5.89513 11.7589 6.27091 11.1061C6.388 10.9027 6.34785 10.6452 6.17437 10.4871L3.63398 8.17186C3.47654 8.02837 3.24548 8.00039 3.05834 8.10214C2.91518 8.17998 2.75888 8.2398 2.59411 8.27901C2.45763 8.31017 2.31704 8.32665 2.17549 8.32792C1.28252 8.33154 0.604774 7.74327 0.511454 7.05846C0.419649 6.38478 0.905616 5.68448 1.764 5.4992L1.76492 5.499C1.89899 5.46979 2.03698 5.45538 2.17562 5.45625L2.17837 5.45625C2.53465 5.4565 2.87757 5.55587 3.1594 5.73465C3.34819 5.85442 3.59354 5.83429 3.76029 5.68537L6.17063 3.53273C6.34956 3.37293 6.38978 3.10856 6.26646 2.90278C6.00829 2.47196 6.02296 1.95797 6.30952 1.5372C6.60173 1.10813 7.14642 0.826103 7.75635 0.833452L7.75635 0.833521L7.76463 0.833483C8.0748 0.832085 8.37656 0.906676 8.63666 1.04556L8.65173 1.05329C9.18512 1.31529 9.48833 1.79184 9.49966 2.2793C9.51098 2.76609 9.23102 3.25112 8.71263 3.53138C8.19026 3.8138 7.53134 3.82652 6.99441 3.56278C6.81167 3.47302 6.59276 3.50302 6.44091 3.63864L3.89185 5.91517C3.72195 6.06691 3.67609 6.3143 3.7803 6.51685C3.79417 6.54381 3.80548 6.57122 3.81429 6.5988C3.89316 6.89104 3.86117 7.19908 3.71889 7.47778C3.61558 7.68014 3.6617 7.92671 3.83116 8.07805L6.43224 10.401C6.58141 10.5343 6.79561 10.5658 6.97683 10.4812C7.21781 10.3687 7.48778 10.3071 7.76451 10.3036C8.05251 10.3048 8.33256 10.3711 8.5784 10.4931ZM6.60358 1.58505L6.60356 1.58504L6.60094 1.58897C6.40494 1.88243 6.34286 2.24236 6.43845 2.58494C6.5278 2.93046 6.76769 3.20841 7.07629 3.36876C7.28156 3.48091 7.51268 3.54004 7.74611 3.54359L7.7461 3.54365L7.75378 3.54365C8.20975 3.54358 8.65653 3.32971 8.91443 2.94299C9.34 2.3093 9.08534 1.51221 8.44409 1.1645C8.23482 1.04956 7.99775 0.992183 7.75985 0.994976C7.30733 0.994211 6.86337 1.20392 6.60358 1.58505ZM8.9125 12.3849C8.91735 12.3778 8.92201 12.3706 8.92649 12.3632C9.30387 11.743 9.05668 10.992 8.45248 10.647L8.4525 10.647L8.4468 10.6438C8.23979 10.5292 8.00606 10.4687 7.76997 10.4651L7.76997 10.4651L7.7623 10.4651C7.30633 10.4651 6.85955 10.679 6.60165 11.0657C6.17566 11.7 6.43123 12.4981 7.07387 12.8452C7.08627 12.8519 7.09894 12.8581 7.11186 12.8637C7.32041 12.9546 7.54939 12.9921 7.77562 12.9749C8.2214 12.9698 8.65642 12.7606 8.9125 12.3849Z" stroke="black" stroke-linejoin="round"/>
</svg>
