<svg width="17" height="17" viewBox="0 0 17 17" fill="none" xmlns="http://www.w3.org/2000/svg">
<path d="M2.13379 7.94751V11.1279C2.13379 14.3083 3.40879 15.5833 6.58921 15.5833H10.4071C13.5875 15.5833 14.8625 14.3083 14.8625 11.1279V7.94751" stroke="white" stroke-width="1.2" stroke-linecap="round" stroke-linejoin="round"/>
<path d="M8.50262 8.50008C9.79887 8.50008 10.7551 7.44466 10.6276 6.14841L10.1601 1.41675H6.8522L6.37762 6.14841C6.25012 7.44466 7.20637 8.50008 8.50262 8.50008Z" stroke="white" stroke-width="1.2" stroke-linecap="round" stroke-linejoin="round"/>
<path d="M12.9703 8.50008C14.4011 8.50008 15.4495 7.33841 15.3078 5.91466L15.1095 3.96675C14.8545 2.12508 14.1461 1.41675 12.2903 1.41675H10.1299L10.6257 6.38216C10.7461 7.55091 11.8015 8.50008 12.9703 8.50008Z" stroke="white" stroke-width="1.2" stroke-linecap="round" stroke-linejoin="round"/>
<path d="M3.99583 8.50008C5.16458 8.50008 6.22 7.55091 6.33333 6.38216L6.48917 4.81675L6.82917 1.41675H4.66875C2.81292 1.41675 2.10458 2.12508 1.84958 3.96675L1.65833 5.91466C1.51667 7.33841 2.565 8.50008 3.99583 8.50008Z" stroke="white" stroke-width="1.2" stroke-linecap="round" stroke-linejoin="round"/>
<path d="M8.50228 12.0417C7.31936 12.0417 6.73145 12.6297 6.73145 13.8126V15.5834H10.2731V13.8126C10.2731 12.6297 9.68519 12.0417 8.50228 12.0417Z" stroke="white" stroke-width="1.2" stroke-linecap="round" stroke-linejoin="round"/>
</svg>
