<svg width="17" height="17" viewBox="0 0 17 17" fill="none" xmlns="http://www.w3.org/2000/svg">
<path d="M9.39085 16.4997C7.9181 16.5001 6.72391 15.3065 6.72356 13.8337L6.72335 12.9448C6.72323 12.4539 7.12111 12.0558 7.61203 12.0557C8.10295 12.0556 8.50101 12.4535 8.50112 12.9444L8.50133 13.8333C8.50145 14.3242 8.89951 14.7221 9.39043 14.722L13.8349 14.7209C14.3258 14.7208 14.7237 14.3227 14.7235 13.8318L14.721 3.16515C14.7209 2.67424 14.3228 2.27636 13.8319 2.27648L9.38749 2.27753C8.89657 2.27765 8.49869 2.67571 8.49881 3.16663L8.49902 4.05551C8.49914 4.54643 8.10126 4.9445 7.61034 4.94461C7.11942 4.94473 6.72136 4.54686 6.72125 4.05594L6.72103 3.16705C6.72069 1.69429 7.91431 0.500104 9.38707 0.499755L13.8315 0.498703C15.3043 0.498354 16.4984 1.69198 16.4988 3.16473L16.5013 13.8314C16.5017 15.3041 15.308 16.4983 13.8353 16.4987L9.39085 16.4997Z" fill="white"/>
<path d="M4.31697 12.685C4.66419 13.0321 5.227 13.0319 5.57405 12.6847C5.9211 12.3375 5.92097 11.7747 5.57375 11.4277L3.53515 9.39002L12.0558 9.388C12.5468 9.38788 12.9446 8.98982 12.9445 8.4989C12.9444 8.00798 12.5463 7.61011 12.0554 7.61022L3.53473 7.61224L5.57237 5.57363C5.91942 5.22642 5.91928 4.66361 5.57207 4.31656C5.22486 3.96951 4.66204 3.96964 4.31499 4.31685L0.760285 7.87325C0.602031 8.03158 0.515967 8.23474 0.502087 8.44183C0.498161 8.49985 0.499915 8.55841 0.507515 8.61667C0.529344 8.78488 0.599271 8.94804 0.717287 9.0839C0.732621 9.10158 0.748617 9.11861 0.765229 9.13497L4.31697 12.685Z" fill="white"/>
</svg>
