<svg width="17" height="17" viewBox="0 0 17 17" fill="none" xmlns="http://www.w3.org/2000/svg">
<path d="M16.2915 12.6858C16.3057 13.2171 16.164 13.72 15.909 14.1521C15.7673 14.4071 15.5761 14.6409 15.3636 14.8321C14.8748 15.2854 14.2302 15.5617 13.5148 15.5829C12.4807 15.6042 11.5669 15.0729 11.064 14.2584C10.7948 13.8404 10.6319 13.3375 10.6248 12.8063C10.6036 11.9138 11.0002 11.1063 11.6377 10.575C12.1194 10.1783 12.7286 9.93043 13.3944 9.91627C14.9598 9.88085 16.2561 11.1204 16.2915 12.6858Z" stroke="#F6F6F6" stroke-miterlimit="10" stroke-linecap="round" stroke-linejoin="round"/>
<path d="M12.3535 12.7714L13.0689 13.4514L14.5494 12.0205" stroke="#F6F6F6" stroke-linecap="round" stroke-linejoin="round"/>
<path d="M2.24561 5.26953L8.50018 8.8891L14.7123 5.29076" stroke="#F6F6F6" stroke-linecap="round" stroke-linejoin="round"/>
<path d="M8.50024 15.3074V8.88281" stroke="#F6F6F6" stroke-linecap="round" stroke-linejoin="round"/>
<path d="M15.307 6.49428V10.5035C15.307 10.5389 15.307 10.5672 15.2999 10.6026C14.8041 10.1705 14.1666 9.91554 13.4583 9.91554C12.7924 9.91554 12.1762 10.1493 11.6874 10.5389C11.0358 11.056 10.6249 11.8564 10.6249 12.7489C10.6249 13.2801 10.7737 13.783 11.0358 14.208C11.0995 14.3214 11.1774 14.4276 11.2624 14.5268L9.9662 15.2422C9.1587 15.6956 7.84119 15.6956 7.03369 15.2422L3.25119 13.1455C2.39411 12.671 1.69287 11.481 1.69287 10.5035V6.49428C1.69287 5.51678 2.39411 4.32679 3.25119 3.85221L7.03369 1.75553C7.84119 1.30219 9.1587 1.30219 9.9662 1.75553L13.7487 3.85221C14.6058 4.32679 15.307 5.51678 15.307 6.49428Z" stroke="#F6F6F6" stroke-linecap="round" stroke-linejoin="round"/>
</svg>
