<svg width="13" height="13" viewBox="0 0 13 13" fill="none" xmlns="http://www.w3.org/2000/svg">
<path d="M7.43569 1.90143L8.38902 3.80809C8.51902 4.07351 8.86569 4.32809 9.15819 4.37684L10.8861 4.66393C11.9911 4.84809 12.2511 5.64976 11.4549 6.44059L10.1115 7.78393C9.88402 8.01143 9.75944 8.45018 9.82986 8.76434L10.2144 10.4273C10.5178 11.7435 9.81902 12.2527 8.65444 11.5648L7.03486 10.606C6.74236 10.4327 6.26027 10.4327 5.96236 10.606L4.34277 11.5648C3.18361 12.2527 2.47944 11.7381 2.78277 10.4273L3.16736 8.76434C3.23777 8.45018 3.11319 8.01143 2.88569 7.78393L1.54236 6.44059C0.751525 5.64976 1.00611 4.84809 2.11111 4.66393L3.83902 4.37684C4.12611 4.32809 4.47277 4.07351 4.60277 3.80809L5.55611 1.90143C6.07611 0.866842 6.92111 0.866842 7.43569 1.90143Z" fill="#EBFF00" stroke="#3D3D3D" stroke-opacity="0.43" stroke-width="0.2" stroke-linecap="round" stroke-linejoin="round"/>
</svg>
