<svg width="13" height="13" viewBox="0 0 13 13" fill="none" xmlns="http://www.w3.org/2000/svg">
<path d="M6.00127 0.486328V4.54008H7.00146V0.486328H6.00127ZM3.75086 2.25065C2.70257 2.85622 1.88319 3.79051 1.41958 4.90884C0.95597 6.02718 0.874007 7.26717 1.18638 8.4368C1.50052 9.60613 2.19141 10.6393 3.15207 11.3763C4.11273 12.1133 5.28957 12.513 6.50037 12.5136C7.71099 12.5128 8.8876 12.113 9.84806 11.376C10.8085 10.639 11.4993 9.60597 11.8133 8.4368C12.1259 7.26739 12.0442 6.02756 11.581 4.90925C11.1178 3.79094 10.2988 2.85652 9.25088 2.25065L8.75078 3.11581C9.60924 3.61082 10.2801 4.37552 10.6592 5.29108C11.0383 6.20663 11.1044 7.22178 10.8472 8.17875C10.5916 9.13602 10.0268 9.98199 9.24068 10.5851C8.45456 11.1881 7.49117 11.5145 6.50037 11.5134C5.50957 11.5145 4.54617 11.1881 3.76005 10.5851C2.97393 9.98199 2.40914 9.13602 2.15356 8.17875C1.89632 7.22178 1.96239 6.20663 2.34149 5.29108C2.72059 4.37552 3.3915 3.61082 4.24995 3.11581L3.75086 2.25065Z" fill="#F6F6F6" stroke="#F6F6F6" stroke-width="0.5"/>
</svg>
