<svg width="13" height="13" viewBox="0 0 13 13" fill="none" xmlns="http://www.w3.org/2000/svg">
<path d="M11.375 3.23861C9.57125 3.05986 7.75667 2.96777 5.9475 2.96777C4.875 2.96777 3.8025 3.02194 2.73 3.13027L1.625 3.23861" stroke="#08BB6A" stroke-linecap="round" stroke-linejoin="round"/>
<path d="M4.60352 2.69078L4.72268 1.9812C4.80935 1.46661 4.87435 1.08203 5.78977 1.08203H7.20893C8.12435 1.08203 8.19477 1.48828 8.27602 1.98661L8.39518 2.69078" stroke="#08BB6A" stroke-linecap="round" stroke-linejoin="round"/>
<path d="M10.2099 4.95074L9.85781 10.4053C9.79823 11.2557 9.74948 11.9166 8.23823 11.9166H4.76073C3.24948 11.9166 3.20073 11.2557 3.14115 10.4053L2.78906 4.95074" stroke="#08BB6A" stroke-linecap="round" stroke-linejoin="round"/>
<path d="M5.5957 8.9375H7.39945" stroke="#08BB6A" stroke-linecap="round" stroke-linejoin="round"/>
<path d="M5.14648 6.76953H7.85482" stroke="#08BB6A" stroke-linecap="round" stroke-linejoin="round"/>
</svg>
