<svg width="15" height="16" viewBox="0 0 15 16" fill="none" xmlns="http://www.w3.org/2000/svg">
<path d="M7.50049 7.99977C9.22638 7.99977 10.6255 6.53403 10.6255 4.72596C10.6255 2.91788 9.22638 1.45215 7.50049 1.45215C5.7746 1.45215 4.37549 2.91788 4.37549 4.72596C4.37549 6.53403 5.7746 7.99977 7.50049 7.99977Z" stroke="#F6F6F6" stroke-linecap="round" stroke-linejoin="round"/>
<path d="M2.13135 14.5474C2.13135 12.0135 4.5376 9.96411 7.5001 9.96411C8.1001 9.96411 8.68135 10.0492 9.2251 10.2064" stroke="#F6F6F6" stroke-linecap="round" stroke-linejoin="round"/>
<path d="M13.7495 11.9286C13.7495 12.1381 13.7245 12.3411 13.6745 12.5375C13.6183 12.7994 13.5183 13.0548 13.387 13.2774C12.9558 14.0369 12.162 14.5477 11.2495 14.5477C10.6058 14.5477 10.0245 14.2923 9.58701 13.8732C9.39951 13.703 9.237 13.5 9.112 13.2774C8.88075 12.8846 8.74951 12.4197 8.74951 11.9286C8.74951 11.2215 9.01826 10.5733 9.45576 10.1018C9.91201 9.61078 10.5495 9.30957 11.2495 9.30957C11.987 9.30957 12.6558 9.64351 13.1058 10.1804C13.5058 10.6453 13.7495 11.2608 13.7495 11.9286Z" stroke="#F6F6F6" stroke-miterlimit="10" stroke-linecap="round" stroke-linejoin="round"/>
<path d="M11.8934 11.2344L10.5747 12.6159" stroke="#F6F6F6" stroke-miterlimit="10" stroke-linecap="round" stroke-linejoin="round"/>
<path d="M10.5869 11.248L11.9119 12.6296" stroke="#F6F6F6" stroke-miterlimit="10" stroke-linecap="round" stroke-linejoin="round"/>
</svg>
