<svg width="19" height="20" viewBox="0 0 19 20" fill="none" xmlns="http://www.w3.org/2000/svg">
<path d="M16.6873 7.29196V12.7069C16.6873 13.5936 16.2123 14.417 15.4444 14.8682L10.7419 17.5836C9.97398 18.027 9.02398 18.027 8.24815 17.5836L3.54565 14.8682C2.77773 14.4249 2.30273 13.6015 2.30273 12.7069V7.29196C2.30273 6.40529 2.77773 5.58192 3.54565 5.13067L8.24815 2.41526C9.01607 1.97193 9.96607 1.97193 10.7419 2.41526L15.4444 5.13067C16.2123 5.58192 16.6873 6.39737 16.6873 7.29196Z" stroke="#F6F6F6" stroke-linecap="round" stroke-linejoin="round"/>
<path d="M9.49937 9.20843C10.5181 9.20843 11.344 8.38257 11.344 7.36384C11.344 6.3451 10.5181 5.51929 9.49937 5.51929C8.48063 5.51929 7.65479 6.3451 7.65479 7.36384C7.65479 8.38257 8.48063 9.20843 9.49937 9.20843Z" stroke="#F6F6F6" stroke-linecap="round" stroke-linejoin="round"/>
<path d="M12.6678 13.6892C12.6678 12.2642 11.2507 11.1084 9.50114 11.1084C7.75156 11.1084 6.33447 12.2642 6.33447 13.6892" stroke="#F6F6F6" stroke-linecap="round" stroke-linejoin="round"/>
</svg>
