<svg width="18" height="19" viewBox="0 0 18 19" fill="none" xmlns="http://www.w3.org/2000/svg">
<path d="M9 9.5C11.0711 9.5 12.75 7.82107 12.75 5.75C12.75 3.67893 11.0711 2 9 2C6.92893 2 5.25 3.67893 5.25 5.75C5.25 7.82107 6.92893 9.5 9 9.5Z" stroke="#F6F6F6" stroke-width="1.5" stroke-linecap="round" stroke-linejoin="round"/>
<path d="M14.4078 12.3053L11.7528 14.9603C11.6478 15.0653 11.5503 15.2603 11.5278 15.4028L11.3853 16.4152C11.3328 16.7827 11.5878 17.0378 11.9553 16.9853L12.9678 16.8427C13.1103 16.8202 13.3128 16.7228 13.4103 16.6178L16.0653 13.9628C16.5228 13.5053 16.7403 12.9728 16.0653 12.2978C15.3978 11.6303 14.8653 11.8478 14.4078 12.3053Z" stroke="#F6F6F6" stroke-width="1.5" stroke-miterlimit="10" stroke-linecap="round" stroke-linejoin="round"/>
<path d="M14.0254 12.6875C14.2504 13.4975 14.8804 14.1275 15.6904 14.3525" stroke="#F6F6F6" stroke-width="1.5" stroke-miterlimit="10" stroke-linecap="round" stroke-linejoin="round"/>
<path d="M2.55762 17C2.55762 14.0975 5.44514 11.75 9.00014 11.75C9.78014 11.75 10.5301 11.8625 11.2276 12.0725" stroke="#F6F6F6" stroke-width="1.5" stroke-linecap="round" stroke-linejoin="round"/>
</svg>
