<svg width="21" height="22" viewBox="0 0 21 22" fill="none" xmlns="http://www.w3.org/2000/svg">
<path d="M7.33252 10.7503L9.44127 12.8678L13.6675 8.63281" stroke="#F6F6F6" stroke-width="1.5" stroke-linecap="round" stroke-linejoin="round"/>
<path d="M9.40627 2.39354C10.01 1.87729 10.9988 1.87729 11.6113 2.39354L12.9938 3.58353C13.2563 3.81103 13.7463 3.99479 14.0963 3.99479H15.5838C16.5113 3.99479 17.2725 4.75603 17.2725 5.68353V7.17103C17.2725 7.51228 17.4563 8.01103 17.6838 8.27353L18.8738 9.65603C19.39 10.2598 19.39 11.2485 18.8738 11.861L17.6838 13.2435C17.4563 13.506 17.2725 13.996 17.2725 14.346V15.8335C17.2725 16.761 16.5113 17.5223 15.5838 17.5223H14.0963C13.755 17.5223 13.2563 17.706 12.9938 17.9335L11.6113 19.1235C11.0075 19.6398 10.0188 19.6398 9.40627 19.1235L8.02377 17.9335C7.76127 17.706 7.27127 17.5223 6.92127 17.5223H5.40752C4.48002 17.5223 3.71877 16.761 3.71877 15.8335V14.3373C3.71877 13.996 3.53502 13.506 3.31627 13.2435L2.13502 11.8523C1.62752 11.2485 1.62752 10.2685 2.13502 9.66479L3.31627 8.27353C3.53502 8.01103 3.71877 7.52103 3.71877 7.17978V5.67478C3.71877 4.74728 4.48002 3.98603 5.40752 3.98603H6.92127C7.26252 3.98603 7.76127 3.80228 8.02377 3.57478L9.40627 2.39354Z" stroke="#F6F6F6" stroke-width="1.5" stroke-linecap="round" stroke-linejoin="round"/>
</svg>
